<mxfile host="app.diagrams.net" modified="2022-05-10T07:04:50.734Z" agent="5.0 (Windows NT 10.0; Win64; x64) AppleWebKit/537.36 (KHTML, like Gecko) Chrome/101.0.4951.54 Safari/537.36 Edg/101.0.1210.39" etag="neOwFVPtA3qHoYfZC7L-" version="18.0.2" type="github">
  <diagram id="h7QU14QVFvEqcNQnfNww" name="Page-1">
    <mxGraphModel dx="511" dy="836" grid="0" gridSize="10" guides="1" tooltips="1" connect="1" arrows="1" fold="1" page="1" pageScale="1" pageWidth="827" pageHeight="1169" math="0" shadow="0">
      <root>
        <mxCell id="0" />
        <mxCell id="1" parent="0" />
        <mxCell id="fChbEMPvrJXztvvPjygy-1" value="Player" style="swimlane;fontStyle=1;align=center;verticalAlign=top;childLayout=stackLayout;horizontal=1;startSize=26;horizontalStack=0;resizeParent=1;resizeParentMax=0;resizeLast=0;collapsible=1;marginBottom=0;" parent="1" vertex="1">
          <mxGeometry x="591" y="665" width="179" height="124" as="geometry" />
        </mxCell>
        <mxCell id="fChbEMPvrJXztvvPjygy-2" value="- name: String&#xa;- color: Color&#xa;- inBase: int&#xa;- inHome[]: ArrayListÂ  &lt;Figure&gt;" style="text;strokeColor=none;fillColor=none;align=left;verticalAlign=top;spacingLeft=4;spacingRight=4;overflow=hidden;rotatable=0;points=[[0,0.5],[1,0.5]];portConstraint=eastwest;" parent="fChbEMPvrJXztvvPjygy-1" vertex="1">
          <mxGeometry y="26" width="179" height="64" as="geometry" />
        </mxCell>
        <mxCell id="fChbEMPvrJXztvvPjygy-3" value="" style="line;strokeWidth=1;fillColor=none;align=left;verticalAlign=middle;spacingTop=-1;spacingLeft=3;spacingRight=3;rotatable=0;labelPosition=right;points=[];portConstraint=eastwest;" parent="fChbEMPvrJXztvvPjygy-1" vertex="1">
          <mxGeometry y="90" width="179" height="8" as="geometry" />
        </mxCell>
        <mxCell id="fChbEMPvrJXztvvPjygy-4" value="+ method(type): type" style="text;strokeColor=none;fillColor=none;align=left;verticalAlign=top;spacingLeft=4;spacingRight=4;overflow=hidden;rotatable=0;points=[[0,0.5],[1,0.5]];portConstraint=eastwest;" parent="fChbEMPvrJXztvvPjygy-1" vertex="1">
          <mxGeometry y="98" width="179" height="26" as="geometry" />
        </mxCell>
        <mxCell id="fChbEMPvrJXztvvPjygy-13" value="FigureAL" style="swimlane;fontStyle=1;align=center;verticalAlign=top;childLayout=stackLayout;horizontal=1;startSize=26;horizontalStack=0;resizeParent=1;resizeParentMax=0;resizeLast=0;collapsible=1;marginBottom=0;rounded=0;" parent="1" vertex="1">
          <mxGeometry x="250" y="395" width="210" height="60" as="geometry" />
        </mxCell>
        <mxCell id="fChbEMPvrJXztvvPjygy-15" value="" style="line;strokeWidth=1;fillColor=none;align=left;verticalAlign=middle;spacingTop=-1;spacingLeft=3;spacingRight=3;rotatable=0;labelPosition=right;points=[];portConstraint=eastwest;" parent="fChbEMPvrJXztvvPjygy-13" vertex="1">
          <mxGeometry y="26" width="210" height="8" as="geometry" />
        </mxCell>
        <mxCell id="fChbEMPvrJXztvvPjygy-16" value="+ actionPerformed()" style="text;strokeColor=none;fillColor=none;align=left;verticalAlign=top;spacingLeft=4;spacingRight=4;overflow=hidden;rotatable=0;points=[[0,0.5],[1,0.5]];portConstraint=eastwest;" parent="fChbEMPvrJXztvvPjygy-13" vertex="1">
          <mxGeometry y="34" width="210" height="26" as="geometry" />
        </mxCell>
        <mxCell id="fChbEMPvrJXztvvPjygy-17" value="Game -obersvable" style="swimlane;fontStyle=1;align=center;verticalAlign=top;childLayout=stackLayout;horizontal=1;startSize=26;horizontalStack=0;resizeParent=1;resizeParentMax=0;resizeLast=0;collapsible=1;marginBottom=0;" parent="1" vertex="1">
          <mxGeometry x="558" y="233" width="245" height="399" as="geometry" />
        </mxCell>
        <mxCell id="fChbEMPvrJXztvvPjygy-18" value="- currentPlayer: Player&#xa;- currentFigure: Figure&#xa;- toKickFigure: Figure&#xa;- blockedFigure : ArrayList&lt;Figure&gt;&#xa;- dices : ArrayList&lt;Integer&gt;&#xa;- observers : Observer&#xa;- fieldFigurePosition[]: Figure&#xa;- round: int&#xa;- wuerfe : int&#xa;- lastPosirion : int&#xa;- lastArea : Area&#xa;- canMove : boolean" style="text;strokeColor=none;fillColor=none;align=left;verticalAlign=top;spacingLeft=4;spacingRight=4;overflow=hidden;rotatable=0;points=[[0,0.5],[1,0.5]];portConstraint=eastwest;" parent="fChbEMPvrJXztvvPjygy-17" vertex="1">
          <mxGeometry y="26" width="245" height="182" as="geometry" />
        </mxCell>
        <mxCell id="fChbEMPvrJXztvvPjygy-19" value="" style="line;strokeWidth=1;fillColor=none;align=left;verticalAlign=middle;spacingTop=-1;spacingLeft=3;spacingRight=3;rotatable=0;labelPosition=right;points=[];portConstraint=eastwest;" parent="fChbEMPvrJXztvvPjygy-17" vertex="1">
          <mxGeometry y="208" width="245" height="8" as="geometry" />
        </mxCell>
        <mxCell id="fChbEMPvrJXztvvPjygy-20" value="+ Game(names und isBot)&#xa;+ Game(names)&#xa;+ createFigure(player : Player) : void&#xa;+ nextPlayer(): Player&#xa;+ againPlayer() : void&#xa;+ checkMove(Figure)&#xa;+ moveFigure(currentFigure)&#xa;+ firstPlayer(): Player&#xa;&#xa;+ notify(observable)&#xa;+ getMoveData(): int, Figure&#xa;+ getKickData():Figure&#xa;&#xa;" style="text;strokeColor=none;fillColor=none;align=left;verticalAlign=top;spacingLeft=4;spacingRight=4;overflow=hidden;rotatable=0;points=[[0,0.5],[1,0.5]];portConstraint=eastwest;" parent="fChbEMPvrJXztvvPjygy-17" vertex="1">
          <mxGeometry y="216" width="245" height="183" as="geometry" />
        </mxCell>
        <mxCell id="fChbEMPvrJXztvvPjygy-22" value="Controller" style="swimlane;fontStyle=1;align=center;verticalAlign=top;childLayout=stackLayout;horizontal=1;startSize=26;horizontalStack=0;resizeParent=1;resizeParentMax=0;resizeLast=0;collapsible=1;marginBottom=0;" parent="1" vertex="1">
          <mxGeometry x="320" y="110" width="210" height="166" as="geometry" />
        </mxCell>
        <mxCell id="fChbEMPvrJXztvvPjygy-23" value="+ currentGame: Game&#xa;+ frame: JFrame&#xa;- INSTANCE : Controller" style="text;strokeColor=none;fillColor=none;align=left;verticalAlign=top;spacingLeft=4;spacingRight=4;overflow=hidden;rotatable=0;points=[[0,0.5],[1,0.5]];portConstraint=eastwest;" parent="fChbEMPvrJXztvvPjygy-22" vertex="1">
          <mxGeometry y="26" width="210" height="44" as="geometry" />
        </mxCell>
        <mxCell id="fChbEMPvrJXztvvPjygy-24" value="" style="line;strokeWidth=1;fillColor=none;align=left;verticalAlign=middle;spacingTop=-1;spacingLeft=3;spacingRight=3;rotatable=0;labelPosition=right;points=[];portConstraint=eastwest;" parent="fChbEMPvrJXztvvPjygy-22" vertex="1">
          <mxGeometry y="70" width="210" height="8" as="geometry" />
        </mxCell>
        <mxCell id="fChbEMPvrJXztvvPjygy-25" value="+ newGame(name : String): Game&#xa;+ saveGame(): void&#xa;+ loadGame(): Game&#xa;+ setFrame(frame : JFrame) : void&#xa;+ getInstance() : Controller" style="text;strokeColor=none;fillColor=none;align=left;verticalAlign=top;spacingLeft=4;spacingRight=4;overflow=hidden;rotatable=0;points=[[0,0.5],[1,0.5]];portConstraint=eastwest;" parent="fChbEMPvrJXztvvPjygy-22" vertex="1">
          <mxGeometry y="78" width="210" height="88" as="geometry" />
        </mxCell>
        <mxCell id="fChbEMPvrJXztvvPjygy-26" value="Gamefied GUI -observer" style="swimlane;fontStyle=1;align=center;verticalAlign=top;childLayout=stackLayout;horizontal=1;startSize=26;horizontalStack=0;resizeParent=1;resizeParentMax=0;resizeLast=0;collapsible=1;marginBottom=0;" parent="1" vertex="1">
          <mxGeometry x="80" y="132" width="167" height="124" as="geometry" />
        </mxCell>
        <mxCell id="fChbEMPvrJXztvvPjygy-28" value="" style="line;strokeWidth=1;fillColor=none;align=left;verticalAlign=middle;spacingTop=-1;spacingLeft=3;spacingRight=3;rotatable=0;labelPosition=right;points=[];portConstraint=eastwest;" parent="fChbEMPvrJXztvvPjygy-26" vertex="1">
          <mxGeometry y="26" width="167" height="8" as="geometry" />
        </mxCell>
        <mxCell id="fChbEMPvrJXztvvPjygy-27" value="fieldPanelPosition[]: ArrayList&#xa;homeY[]: ArrayList&#xa;baseY[]: ArrayList" style="text;strokeColor=none;fillColor=none;align=left;verticalAlign=top;spacingLeft=4;spacingRight=4;overflow=hidden;rotatable=0;points=[[0,0.5],[1,0.5]];portConstraint=eastwest;" parent="fChbEMPvrJXztvvPjygy-26" vertex="1">
          <mxGeometry y="34" width="167" height="47" as="geometry" />
        </mxCell>
        <mxCell id="fChbEMPvrJXztvvPjygy-29" value="+ moveFigure&#xa;+ activateDice" style="text;strokeColor=none;fillColor=none;align=left;verticalAlign=top;spacingLeft=4;spacingRight=4;overflow=hidden;rotatable=0;points=[[0,0.5],[1,0.5]];portConstraint=eastwest;" parent="fChbEMPvrJXztvvPjygy-26" vertex="1">
          <mxGeometry y="81" width="167" height="43" as="geometry" />
        </mxCell>
        <mxCell id="fChbEMPvrJXztvvPjygy-30" value="Figure -Button" style="swimlane;fontStyle=1;align=center;verticalAlign=top;childLayout=stackLayout;horizontal=1;startSize=26;horizontalStack=0;resizeParent=1;resizeParentMax=0;resizeLast=0;collapsible=1;marginBottom=0;rounded=0;" parent="1" vertex="1" collapsed="1">
          <mxGeometry x="123" y="263" width="110" height="26" as="geometry">
            <mxRectangle x="132" y="249" width="89" height="46" as="alternateBounds" />
          </mxGeometry>
        </mxCell>
        <mxCell id="fChbEMPvrJXztvvPjygy-32" value="" style="line;strokeWidth=1;fillColor=none;align=left;verticalAlign=middle;spacingTop=-1;spacingLeft=3;spacingRight=3;rotatable=0;labelPosition=right;points=[];portConstraint=eastwest;rounded=0;" parent="fChbEMPvrJXztvvPjygy-30" vertex="1">
          <mxGeometry y="26" width="89" height="20" as="geometry" />
        </mxCell>
        <mxCell id="fChbEMPvrJXztvvPjygy-35" value="DiceAL" style="swimlane;fontStyle=1;align=center;verticalAlign=top;childLayout=stackLayout;horizontal=1;startSize=26;horizontalStack=0;resizeParent=1;resizeParentMax=0;resizeLast=0;collapsible=1;marginBottom=0;rounded=0;" parent="1" vertex="1">
          <mxGeometry x="34" y="398" width="190" height="209" as="geometry" />
        </mxCell>
        <mxCell id="fChbEMPvrJXztvvPjygy-36" value="+ DiceBtn: JButton&#xa;- lastRoll : int&#xa;- INSTANCE : DiceAL" style="text;strokeColor=none;fillColor=none;align=left;verticalAlign=top;spacingLeft=4;spacingRight=4;overflow=hidden;rotatable=0;points=[[0,0.5],[1,0.5]];portConstraint=eastwest;rounded=0;" parent="fChbEMPvrJXztvvPjygy-35" vertex="1">
          <mxGeometry y="26" width="190" height="57" as="geometry" />
        </mxCell>
        <mxCell id="fChbEMPvrJXztvvPjygy-37" value="" style="line;strokeWidth=1;fillColor=none;align=left;verticalAlign=middle;spacingTop=-1;spacingLeft=3;spacingRight=3;rotatable=0;labelPosition=right;points=[];portConstraint=eastwest;rounded=0;" parent="fChbEMPvrJXztvvPjygy-35" vertex="1">
          <mxGeometry y="83" width="190" height="8" as="geometry" />
        </mxCell>
        <mxCell id="fChbEMPvrJXztvvPjygy-38" value="+ deactivateDice&#xa;+ rollTheDice(): int&#xa;+ reset() : void&#xa;+ getInstance() : DiceAL" style="text;strokeColor=none;fillColor=none;align=left;verticalAlign=top;spacingLeft=4;spacingRight=4;overflow=hidden;rotatable=0;points=[[0,0.5],[1,0.5]];portConstraint=eastwest;rounded=0;" parent="fChbEMPvrJXztvvPjygy-35" vertex="1">
          <mxGeometry y="91" width="190" height="118" as="geometry" />
        </mxCell>
        <mxCell id="fChbEMPvrJXztvvPjygy-52" value="main" style="html=1;rounded=0;" parent="1" vertex="1">
          <mxGeometry x="370" y="11" width="110" height="50" as="geometry" />
        </mxCell>
        <mxCell id="fChbEMPvrJXztvvPjygy-66" value="&lt;font style=&quot;font-size: 32px&quot;&gt;&lt;b&gt;MAD&lt;/b&gt;&lt;/font&gt;" style="text;html=1;align=center;verticalAlign=middle;resizable=0;points=[];autosize=1;strokeColor=none;fillColor=none;" parent="1" vertex="1">
          <mxGeometry x="576" y="186" width="83" height="25" as="geometry" />
        </mxCell>
        <mxCell id="fChbEMPvrJXztvvPjygy-68" value="Â«interfaceÂ»&lt;br&gt;&lt;b&gt;ActionListener&lt;/b&gt;" style="html=1;rounded=0;" parent="1" vertex="1">
          <mxGeometry x="187" y="311" width="110" height="50" as="geometry" />
        </mxCell>
        <mxCell id="fChbEMPvrJXztvvPjygy-72" value="" style="endArrow=block;dashed=1;endFill=0;endSize=12;html=1;rounded=0;exitX=0.5;exitY=0;exitDx=0;exitDy=0;" parent="1" source="fChbEMPvrJXztvvPjygy-35" target="fChbEMPvrJXztvvPjygy-68" edge="1">
          <mxGeometry width="160" relative="1" as="geometry">
            <mxPoint x="288" y="468" as="sourcePoint" />
            <mxPoint x="448" y="468" as="targetPoint" />
          </mxGeometry>
        </mxCell>
        <mxCell id="fChbEMPvrJXztvvPjygy-73" value="" style="endArrow=block;dashed=1;endFill=0;endSize=12;html=1;rounded=0;exitX=0.5;exitY=0;exitDx=0;exitDy=0;" parent="1" source="fChbEMPvrJXztvvPjygy-13" target="fChbEMPvrJXztvvPjygy-68" edge="1">
          <mxGeometry width="160" relative="1" as="geometry">
            <mxPoint x="288" y="468" as="sourcePoint" />
            <mxPoint x="448" y="468" as="targetPoint" />
          </mxGeometry>
        </mxCell>
        <mxCell id="fChbEMPvrJXztvvPjygy-74" value="" style="endArrow=open;endFill=1;endSize=12;html=1;rounded=0;entryX=0.5;entryY=0;entryDx=0;entryDy=0;" parent="1" source="fChbEMPvrJXztvvPjygy-22" target="fChbEMPvrJXztvvPjygy-17" edge="1">
          <mxGeometry width="160" relative="1" as="geometry">
            <mxPoint x="526" y="244" as="sourcePoint" />
            <mxPoint x="686" y="244" as="targetPoint" />
          </mxGeometry>
        </mxCell>
        <mxCell id="fChbEMPvrJXztvvPjygy-75" value="" style="endArrow=open;endFill=1;endSize=12;html=1;rounded=0;" parent="1" source="fChbEMPvrJXztvvPjygy-17" target="fChbEMPvrJXztvvPjygy-1" edge="1">
          <mxGeometry width="160" relative="1" as="geometry">
            <mxPoint x="292" y="493" as="sourcePoint" />
            <mxPoint x="452" y="493" as="targetPoint" />
          </mxGeometry>
        </mxCell>
        <mxCell id="fChbEMPvrJXztvvPjygy-77" value="" style="endArrow=open;endFill=1;endSize=12;html=1;rounded=0;" parent="1" source="fChbEMPvrJXztvvPjygy-22" target="fChbEMPvrJXztvvPjygy-26" edge="1">
          <mxGeometry width="160" relative="1" as="geometry">
            <mxPoint x="292" y="193" as="sourcePoint" />
            <mxPoint x="452" y="193" as="targetPoint" />
          </mxGeometry>
        </mxCell>
        <mxCell id="fChbEMPvrJXztvvPjygy-78" value="" style="endArrow=open;endFill=1;endSize=12;html=1;rounded=0;" parent="1" source="fChbEMPvrJXztvvPjygy-52" target="fChbEMPvrJXztvvPjygy-22" edge="1">
          <mxGeometry width="160" relative="1" as="geometry">
            <mxPoint x="292" y="193" as="sourcePoint" />
            <mxPoint x="452" y="193" as="targetPoint" />
          </mxGeometry>
        </mxCell>
        <mxCell id="USmH-3ETjADoORAym_nX-3" value="&lt;b&gt;Dice -Button&lt;/b&gt;" style="html=1;" parent="1" vertex="1">
          <mxGeometry x="7" y="263" width="110" height="26" as="geometry" />
        </mxCell>
        <mxCell id="USmH-3ETjADoORAym_nX-4" value="MadJPanel" style="swimlane;fontStyle=1;align=center;verticalAlign=top;childLayout=stackLayout;horizontal=1;startSize=26;horizontalStack=0;resizeParent=1;resizeParentMax=0;resizeLast=0;collapsible=1;marginBottom=0;" parent="1" vertex="1" collapsed="1">
          <mxGeometry x="241" y="263" width="90" height="26" as="geometry">
            <mxRectangle x="239" y="255" width="81" height="34" as="alternateBounds" />
          </mxGeometry>
        </mxCell>
        <mxCell id="USmH-3ETjADoORAym_nX-6" value="" style="line;strokeWidth=1;fillColor=none;align=left;verticalAlign=middle;spacingTop=-1;spacingLeft=3;spacingRight=3;rotatable=0;labelPosition=right;points=[];portConstraint=eastwest;" parent="USmH-3ETjADoORAym_nX-4" vertex="1">
          <mxGeometry y="26" width="81" height="8" as="geometry" />
        </mxCell>
        <mxCell id="xLmcW1UrH2bPR5li3O9b-5" value="MovementInfo" style="swimlane;fontStyle=0;childLayout=stackLayout;horizontal=1;startSize=26;fillColor=none;horizontalStack=0;resizeParent=1;resizeParentMax=0;resizeLast=0;collapsible=1;marginBottom=0;" parent="1" vertex="1">
          <mxGeometry x="274" y="472" width="140" height="118" as="geometry" />
        </mxCell>
        <mxCell id="xLmcW1UrH2bPR5li3O9b-6" value="- figure : Figure&#xa;- distance : int&#xa;- player : Color&#xa;- originArea : Area&#xa;- destinationArea : Area" style="text;strokeColor=none;fillColor=none;align=left;verticalAlign=top;spacingLeft=4;spacingRight=4;overflow=hidden;rotatable=0;points=[[0,0.5],[1,0.5]];portConstraint=eastwest;" parent="xLmcW1UrH2bPR5li3O9b-5" vertex="1">
          <mxGeometry y="26" width="140" height="92" as="geometry" />
        </mxCell>
        <mxCell id="xLmcW1UrH2bPR5li3O9b-9" value="Â«EnumÂ»&lt;br&gt;&lt;b&gt;Area&lt;/b&gt;" style="html=1;" parent="1" vertex="1">
          <mxGeometry x="289" y="651" width="110" height="50" as="geometry" />
        </mxCell>
        <mxCell id="xLmcW1UrH2bPR5li3O9b-10" value="Use" style="endArrow=open;endSize=12;dashed=1;html=1;rounded=0;entryX=0.5;entryY=0;entryDx=0;entryDy=0;exitX=0.507;exitY=1.043;exitDx=0;exitDy=0;exitPerimeter=0;" parent="1" source="xLmcW1UrH2bPR5li3O9b-6" target="xLmcW1UrH2bPR5li3O9b-9" edge="1">
          <mxGeometry width="160" relative="1" as="geometry">
            <mxPoint x="344" y="680" as="sourcePoint" />
            <mxPoint x="535" y="671" as="targetPoint" />
          </mxGeometry>
        </mxCell>
        <mxCell id="xLmcW1UrH2bPR5li3O9b-12" value="Use" style="endArrow=open;endSize=12;dashed=1;html=1;rounded=0;exitX=0;exitY=0.5;exitDx=0;exitDy=0;entryX=1;entryY=0.5;entryDx=0;entryDy=0;" parent="1" source="fChbEMPvrJXztvvPjygy-20" target="xLmcW1UrH2bPR5li3O9b-6" edge="1">
          <mxGeometry width="160" relative="1" as="geometry">
            <mxPoint x="359" y="615" as="sourcePoint" />
            <mxPoint x="519" y="615" as="targetPoint" />
          </mxGeometry>
        </mxCell>
      </root>
    </mxGraphModel>
  </diagram>
</mxfile>
